<svg version="1.1" id="Layer_1" xmlns="http://www.w3.org/2000/svg" xmlns:xlink="http://www.w3.org/1999/xlink" x="0px" y="0px"
	 width="100%" viewBox="0 0 1024 1024" enable-background="new 0 0 1024 1024" xml:space="preserve">
<path fill="#000000" opacity="1.000000" stroke="none" 
	d="
M436.017120,519.321655 
	C433.022583,519.249451 430.518127,519.035889 428.026489,519.137451 
	C418.409607,519.529114 414.704834,510.391296 417.953857,502.088165 
	C418.678833,500.235413 419.602081,498.518127 419.625366,496.664368 
	C420.627167,494.989258 422.334595,496.819550 423.687073,495.220184 
	C423.687073,489.995636 423.689331,484.349915 423.686707,478.704224 
	C423.674927,453.374390 423.667389,428.044556 423.645599,402.714722 
	C423.639252,395.321472 423.619995,395.322876 416.024628,395.301575 
	C414.191650,395.296448 412.357269,395.321503 410.526031,395.259430 
	C406.324860,395.117126 403.902527,392.876373 403.908081,388.720245 
	C403.914032,384.294617 404.070862,380.025116 398.593811,378.462036 
	C405.553253,368.380920 402.531769,358.663696 400.153717,349.149750 
	C397.929504,348.300354 397.693817,350.588135 396.175476,350.631897 
	C395.925537,350.345642 395.391083,350.020905 395.348694,349.641205 
	C394.850616,345.179016 394.088104,340.712219 394.039917,336.239716 
	C393.806641,314.578674 393.748779,292.915527 393.675507,271.253021 
	C393.648071,263.144775 397.022552,259.697479 405.155701,259.670441 
	C422.653046,259.612335 440.155609,259.922302 457.646881,259.594086 
	C472.461761,259.316071 487.224304,259.682831 501.969238,261.032837 
	C503.442108,261.167694 505.128387,261.194214 506.308807,261.926636 
	C512.276001,265.629242 518.788696,265.918427 525.528809,265.758667 
	C531.527771,265.616455 533.287842,267.526215 533.308289,273.486267 
	C533.356934,287.650787 533.328613,301.815643 533.331177,315.980347 
	C533.331543,317.780212 533.331238,319.580078 533.331238,322.450745 
	C565.253845,319.729492 596.584167,317.058716 628.494141,314.338531 
	C625.549683,307.570587 629.484558,306.998505 633.952759,306.727966 
	C636.104675,306.597656 638.228333,305.953796 640.378967,305.856689 
	C646.557617,305.577637 650.593689,308.927399 651.246094,315.103485 
	C653.674805,338.094849 655.985779,361.098633 658.356934,384.096100 
	C659.209900,392.368652 660.185425,400.629364 660.956421,408.909302 
	C661.415100,413.835815 662.112061,418.640839 658.222717,423.066467 
	C655.704712,425.931732 657.336304,430.150055 657.552917,433.723541 
	C657.933838,440.008423 656.597717,441.806152 650.344727,442.350281 
	C619.675781,445.018951 589.010925,447.735931 558.334656,450.317719 
	C554.572876,450.634308 553.156555,452.107574 553.191772,455.933899 
	C553.340210,472.096954 553.271667,488.262207 553.248535,504.426605 
	C553.237305,512.279175 551.718567,513.866943 543.888306,513.882812 
	C516.059021,513.939331 488.229584,513.931885 460.400208,513.948303 
	C457.923431,513.949768 455.446655,513.948486 452.919098,513.948486 
	C452.966980,516.098389 455.615143,515.928650 455.155670,519.147217 
	C449.151245,519.204468 442.832153,519.264709 436.017120,519.321655 
M643.834412,381.681763 
	C640.288696,376.074707 641.315979,374.216949 649.882690,371.231293 
	C649.780273,366.634949 650.168335,361.975128 643.891907,360.491638 
	C640.640503,359.723175 639.922546,356.889404 639.676758,353.853058 
	C639.099487,346.724152 638.416565,339.603088 637.704285,332.486084 
	C637.062744,326.076050 635.864563,324.824829 629.616699,325.296631 
	C613.027588,326.549255 596.453003,327.998596 579.877563,329.426880 
	C564.955505,330.712677 550.043030,332.109589 535.119385,333.375946 
	C531.717590,333.664642 529.793335,334.952820 530.289734,338.684814 
	C530.662537,341.487671 530.985535,344.300323 531.222351,347.117676 
	C533.632507,375.787201 536.011169,404.459412 538.420959,433.128967 
	C539.062683,440.764435 539.954468,441.285980 547.681763,440.514801 
	C561.591736,439.126526 575.524475,437.967255 589.446899,436.703186 
	C607.014709,435.108124 624.577271,433.452667 642.152832,431.948883 
	C645.496826,431.662750 646.746399,430.702423 646.237305,426.991119 
	C645.130188,418.920410 644.577698,410.772675 643.838257,402.652832 
	C643.494995,398.883911 644.061096,395.569153 648.496948,394.512817 
	C650.264709,394.091858 650.915894,392.852356 650.885254,391.191925 
	C650.836609,388.566528 651.374084,385.882050 650.262207,383.305634 
	C648.307007,382.788910 646.154846,383.544952 643.834412,381.681763 
M434.375580,480.499908 
	C434.381348,485.998474 434.610718,491.508881 434.320557,496.991791 
	C434.096954,501.216339 435.297882,502.868225 439.859406,502.845459 
	C472.016296,502.684937 504.175049,502.677032 536.331421,502.890808 
	C541.126831,502.922699 542.498169,501.023621 542.440857,496.774658 
	C542.270325,484.121796 542.033386,471.466125 542.160522,458.814911 
	C542.208252,454.069458 541.146790,451.519623 535.767334,452.238678 
	C531.550964,452.802246 529.144592,450.562836 528.753906,446.327881 
	C527.393677,431.586456 525.997498,416.847839 524.755554,402.096344 
	C524.205627,395.565552 524.163330,395.316681 517.771118,395.312347 
	C492.944672,395.295563 468.118225,395.308685 443.291779,395.313995 
	C434.390167,395.315887 434.385986,395.320190 434.384460,404.020905 
	C434.380035,429.180573 434.379333,454.340240 434.375580,480.499908 
M522.434387,279.314697 
	C521.392334,276.532349 519.060669,276.767303 517.002686,277.386200 
	C514.410583,278.165680 515.182068,280.647949 515.178284,282.521118 
	C515.121765,310.497070 515.119568,338.473145 515.100342,366.449188 
	C515.098511,369.114502 515.156311,371.791656 513.979187,374.291718 
	C512.719482,376.967102 511.074158,379.260010 507.803986,379.423828 
	C495.683197,380.030823 483.576599,381.932465 471.439392,380.915802 
	C461.037109,380.044525 449.853912,381.478516 441.451172,372.824890 
	C440.699677,372.050964 439.407745,371.602631 438.296722,371.412415 
	C434.138153,370.700317 432.820618,367.860565 431.898285,364.147736 
	C429.576874,354.803131 425.796021,345.892883 424.010620,336.333008 
	C423.379211,332.952118 421.882874,327.175354 417.081024,328.111145 
	C412.924164,328.921295 415.088684,334.137451 415.138885,337.241150 
	C415.361725,351.018158 414.374634,364.782898 415.708832,378.610687 
	C416.160461,383.291565 416.432800,384.695557 420.923767,384.646637 
	C452.889313,384.298370 484.860382,385.185516 516.826172,384.171570 
	C521.106262,384.035797 523.007263,382.523773 522.648193,378.239075 
	C521.843201,368.632843 520.762878,359.035278 520.392639,349.411163 
	C520.034912,340.113770 515.227295,330.428497 522.299072,321.558929 
	C522.895447,320.810913 522.595215,319.293152 522.595459,318.133026 
	C522.598022,305.477417 522.577515,292.821838 522.434387,279.314697 
M454.298218,304.255188 
	C451.629761,304.933594 450.469513,306.812225 450.463287,309.400055 
	C450.429657,323.378906 450.395477,337.358185 450.481628,351.336578 
	C450.505035,355.135529 452.575256,357.062073 456.528625,356.954803 
	C461.351349,356.823944 466.180786,356.947113 471.003906,356.824799 
	C477.414551,356.662170 482.058655,353.596863 484.892426,347.869568 
	C487.933746,341.722626 487.231628,335.793701 482.947601,330.608643 
	C480.851929,328.072235 480.553192,326.070740 481.713928,323.015198 
	C485.005280,314.351044 478.888672,304.908447 469.617645,304.231598 
	C464.818176,303.881195 459.974945,304.130463 454.298218,304.255188 
M419.990723,291.159973 
	C417.252197,290.457733 415.630035,292.083252 415.386078,294.316162 
	C414.821381,299.484833 414.757812,304.709290 415.512482,309.992859 
	C421.743134,308.312622 423.677734,300.143188 419.990723,291.159973 
z"/>
<path fill="#000000" opacity="1.000000" stroke="none" 
	d="
M249.000107,627.608398 
	C260.497467,627.593140 271.497131,627.442566 282.490906,627.633606 
	C286.603210,627.705017 288.135071,626.256226 288.095795,622.145752 
	C287.960541,607.983948 288.158844,593.818726 288.002380,579.657349 
	C287.954285,575.305603 289.094635,573.181702 293.939087,573.573120 
	C298.905762,573.974304 303.932281,573.770630 308.927307,573.635620 
	C312.057922,573.551025 313.405853,574.643433 313.400391,577.946777 
	C313.332275,618.936707 313.332733,659.926941 313.394165,700.916870 
	C313.398987,704.132507 312.224518,705.416077 309.005035,705.323425 
	C304.010529,705.179626 298.992279,705.043030 294.014587,705.368958 
	C289.399506,705.671204 287.912140,703.958557 287.987427,699.369690 
	C288.222443,685.043762 288.075562,670.711548 288.080444,656.381775 
	C288.082855,649.334351 288.086639,649.314636 281.299164,649.308411 
	C263.303497,649.291809 245.306122,649.426697 227.313309,649.197144 
	C222.714890,649.138428 221.230270,650.566162 221.303162,655.177124 
	C221.537537,670.003052 221.234100,684.837280 221.457870,699.663513 
	C221.523834,704.033020 220.203156,705.663208 215.776489,705.372925 
	C210.798752,705.046631 205.780624,705.178589 200.786041,705.320679 
	C197.305939,705.419678 196.130188,703.971252 196.205017,700.538025 
	C196.455414,689.048096 196.595657,677.552795 196.559418,666.060181 
	C196.469559,637.571838 196.248581,609.083984 196.103714,580.595764 
	C196.068497,573.671326 196.110092,573.668823 203.008255,573.660767 
	C207.340546,573.655640 211.684860,573.859070 216.001648,573.600159 
	C220.084229,573.355225 221.529892,574.794678 221.465454,578.992981 
	C221.248108,593.152893 221.571640,607.322144 221.276749,621.479248 
	C221.175644,626.333496 222.702515,627.940125 227.509399,627.703247 
	C234.490891,627.359192 241.501755,627.611206 249.000107,627.608398 
z"/>
<path fill="#000000" opacity="1.000000" stroke="none" 
	d="
M558.343079,678.000122 
	C558.347717,685.498962 558.084290,692.511841 558.449829,699.491760 
	C558.700256,704.273132 556.785583,705.667419 552.361206,705.350037 
	C548.547913,705.076416 544.684448,705.070557 540.871216,705.341370 
	C536.382751,705.660034 534.238037,704.107117 534.817566,699.396362 
	C534.972961,698.133362 535.117371,696.743347 533.884338,694.947693 
	C520.013184,707.107300 503.836273,708.799133 486.722809,704.289673 
	C475.917877,701.442444 467.143768,695.349609 460.723541,685.990845 
	C446.866119,665.791016 448.963470,635.682068 464.983124,618.224670 
	C477.840332,604.213562 510.559387,595.333130 533.888733,614.908203 
	C533.888733,607.303955 533.883240,600.207764 533.890259,593.111572 
	C533.897766,585.612854 533.996521,578.113037 533.896851,570.615845 
	C533.848999,567.020325 535.243958,565.485413 538.942993,565.650330 
	C543.599365,565.857910 548.283936,565.892578 552.934875,565.626343 
	C557.021729,565.392456 558.487854,566.832581 558.418274,571.019043 
	C558.204834,583.846680 558.347290,596.680115 558.347351,609.511292 
	C558.347473,632.174194 558.344604,654.837158 558.343079,678.000122 
M508.873840,685.374451 
	C524.562012,681.970886 531.557495,675.098511 534.027649,659.136414 
	C535.792114,647.734436 532.503906,637.545593 523.170593,630.210327 
	C514.128601,623.104065 503.827087,622.351624 493.417358,626.585266 
	C480.263031,631.935181 473.376404,647.407349 476.888184,662.502075 
	C480.405334,677.619934 491.900665,686.119629 508.873840,685.374451 
z"/>
<path fill="#000000" opacity="1.000000" stroke="none" 
	d="
M363.796509,626.796021 
	C359.096558,628.262512 355.377411,630.819031 350.658203,633.584778 
	C347.724792,628.085083 344.677307,622.836670 342.126312,617.357117 
	C341.122833,615.201599 343.680786,614.324524 345.130615,613.402588 
	C354.025665,607.745850 363.913910,604.661987 374.284790,603.921692 
	C384.704895,603.177979 395.186493,602.909485 405.382202,606.615662 
	C419.555908,611.767700 427.530853,621.967712 429.143829,636.522766 
	C431.531921,658.071838 429.738251,679.764160 430.120819,701.390381 
	C430.167847,704.048096 428.926636,705.349731 426.172211,705.301941 
	C421.844147,705.226746 417.499817,705.075439 413.188049,705.353821 
	C408.718109,705.642395 406.020538,704.532654 406.688263,699.394897 
	C406.784607,698.653381 406.419495,697.851929 406.301758,697.250854 
	C404.848419,696.608765 404.082642,697.409363 403.338531,697.997620 
	C390.623993,708.048645 376.146301,708.239502 361.557922,704.393921 
	C344.798340,699.976135 337.149750,688.137756 338.723450,671.240112 
	C339.880951,658.811462 351.847656,648.587524 367.052582,646.665039 
	C378.180664,645.258118 389.333344,645.985901 400.474457,645.747437 
	C405.858185,645.632263 406.181335,645.237244 404.973053,639.885925 
	C402.875153,630.594910 396.790253,625.220703 387.315094,624.288452 
	C379.437866,623.513428 371.693054,624.033203 363.796509,626.796021 
M400.164062,662.364990 
	C391.537262,662.500488 382.895142,661.945496 374.297943,663.257080 
	C367.494354,664.295044 362.924316,668.302795 362.375671,674.035278 
	C361.803162,680.016785 365.675995,685.323242 372.232208,687.270508 
	C378.980011,689.274841 385.722382,688.998108 392.261810,686.429993 
	C401.257782,682.897217 405.874207,675.883118 405.703979,667.037537 
	C405.639130,663.667358 404.565308,661.994446 400.164062,662.364990 
z"/>
<path fill="#000000" opacity="1.000000" stroke="none" 
	d="
M745.497131,658.584839 
	C753.851929,648.630310 765.094116,646.552917 776.756531,645.967102 
	C785.065063,645.549744 793.413940,645.598755 801.732361,645.849915 
	C806.243225,645.986206 807.196045,644.059204 806.628479,640.131653 
	C805.403564,631.655579 798.383423,625.246338 789.133362,624.293335 
	C776.635010,623.005676 764.924561,625.093811 754.370483,632.273865 
	C753.842529,632.632935 753.182739,632.798096 751.753601,633.408203 
	C749.027344,628.099304 746.219116,622.880981 743.664062,617.541565 
	C742.523682,615.158386 744.871948,614.359314 746.315002,613.458313 
	C754.500854,608.347229 763.521667,605.397705 773.020630,604.262634 
	C783.632324,602.994751 794.278687,602.847107 804.703308,605.960083 
	C820.972412,610.818298 830.870911,623.795715 831.197388,641.837769 
	C831.549866,661.318787 831.218384,680.811340 831.404175,700.296753 
	C831.443420,704.409180 829.769531,705.513550 826.049500,705.332214 
	C821.895447,705.129639 817.713379,705.097107 813.563049,705.333618 
	C809.470337,705.566772 807.598633,704.246033 808.382874,699.903442 
	C808.637512,698.493286 808.224182,696.962585 808.105591,695.338867 
	C792.656189,708.714966 775.189758,709.766846 757.384460,702.222656 
	C739.409180,694.606567 734.514343,675.257629 745.497131,658.584839 
M782.448608,688.626221 
	C784.912109,688.287170 787.407898,688.099426 789.833679,687.583252 
	C801.323486,685.138367 807.731445,676.968811 806.828796,666.115479 
	C806.685913,664.396790 806.654541,662.464417 804.393738,662.492249 
	C793.648010,662.624268 782.789673,661.106628 772.219299,664.107666 
	C767.317810,665.499329 764.320923,668.762756 764.058472,674.158142 
	C763.776489,679.955139 765.880249,683.818420 770.982971,686.227722 
	C774.327759,687.806885 777.954895,688.294922 782.448608,688.626221 
z"/>
<path fill="#000000" opacity="1.000000" stroke="none" 
	d="
M655.562439,615.505493 
	C664.269348,635.846252 672.830444,655.835449 681.511780,676.105408 
	C683.871887,674.073425 684.383728,671.729675 685.274719,669.657532 
	C693.892578,649.615967 702.535339,629.583984 710.927307,609.447693 
	C712.452576,605.788025 714.405029,604.266479 718.360596,604.513794 
	C723.962219,604.864075 729.635620,603.481018 735.265747,605.084167 
	C736.279358,607.091064 734.930176,608.646790 734.254272,610.212036 
	C718.871643,645.831543 703.476318,681.445618 688.001465,717.025085 
	C681.455994,732.074341 670.721375,741.765015 653.642517,742.746582 
	C644.095398,743.295288 635.144104,741.125427 626.950134,736.075012 
	C624.213806,734.388428 623.449829,732.447144 625.391541,729.495972 
	C628.201782,725.224609 629.779846,720.195068 633.407776,715.956238 
	C637.700256,718.281921 641.653625,721.000305 646.511414,721.870422 
	C657.025208,723.753662 667.276123,716.476929 668.642151,705.905945 
	C668.895142,703.948242 667.984802,702.333862 667.264465,700.669617 
	C654.563721,671.327087 641.840881,641.994141 629.143066,612.650330 
	C628.170349,610.402588 627.348572,608.089539 625.968811,604.558228 
	C634.413208,604.558228 641.959351,604.409973 649.493591,604.645020 
	C651.874634,604.719299 652.025452,607.463623 652.870850,609.182678 
	C653.824341,611.121460 654.576721,613.159241 655.562439,615.505493 
z"/>
<path fill="#000000" opacity="1.000000" stroke="none" 
	d="
M612.312805,699.857666 
	C612.714844,703.970459 611.173218,705.482422 607.461121,705.333191 
	C602.470276,705.132568 597.463684,705.196350 592.467407,705.307922 
	C589.356445,705.377441 587.873596,704.208801 587.878723,700.954834 
	C587.927124,670.295532 587.930969,639.636230 587.894653,608.976868 
	C587.890930,605.800537 589.205139,604.457642 592.396484,604.553528 
	C596.719299,604.683350 601.049255,604.556091 605.375793,604.583191 
	C612.304504,604.626648 612.329407,604.641968 612.330139,611.393982 
	C612.333496,640.720459 612.320923,670.046936 612.312805,699.857666 
z"/>
<path fill="#000000" opacity="1.000000" stroke="none" 
	d="
M615.181152,570.164551 
	C616.216614,578.565125 613.835144,583.966858 607.967468,587.092285 
	C602.219788,590.153687 594.441406,589.291687 589.773071,585.076111 
	C583.538574,579.446228 583.326904,569.723999 589.319519,564.243713 
	C596.059326,558.080139 607.470032,558.836182 612.931641,565.876770 
	C613.833252,567.039001 614.387390,568.470825 615.181152,570.164551 
z"/>
<path fill="#000000" opacity="1.000000" stroke="none" 
	d="
M429.599670,757.946777 
	C430.141052,757.837830 430.315125,757.776733 430.471039,757.807495 
	C435.411987,758.782715 440.015289,760.236267 445.396942,758.039978 
	C449.214264,756.482178 452.369781,760.097961 452.906372,764.142334 
	C453.471588,768.402283 453.186401,772.778992 453.205963,777.104980 
	C453.211456,778.319885 452.803528,779.594177 451.404755,779.708130 
	C449.727692,779.844727 449.056641,778.496277 448.987244,777.105591 
	C448.821350,773.781189 448.835175,770.447571 448.786194,767.117615 
	C448.743866,764.240417 447.693268,762.160706 444.459961,762.219971 
	C441.344238,762.277039 439.442505,763.886475 439.316681,767.125305 
	C439.187439,770.452332 439.232056,773.786194 439.096985,777.112915 
	C439.048218,778.313599 438.542999,779.543884 437.161255,779.648254 
	C435.435181,779.778687 434.882935,778.410339 434.829712,777.018127 
	C434.702515,773.690491 434.743713,770.356750 434.684662,767.026123 
	C434.638336,764.411560 433.736481,762.342529 430.760132,762.242004 
	C427.665344,762.137329 425.579071,763.629822 425.359161,766.855042 
	C425.132812,770.174072 425.263214,773.516113 425.116425,776.842712 
	C425.056854,778.192444 424.658600,779.688660 422.923004,779.624878 
	C421.245544,779.563171 420.840088,778.099976 420.820129,776.730896 
	C420.747223,771.734497 420.726959,766.736328 420.772980,761.739563 
	C420.795532,759.290405 421.787720,757.740234 424.511719,758.934326 
	C426.381592,759.754028 427.685455,758.477173 429.599670,757.946777 
z"/>
<path fill="#000000" opacity="1.000000" stroke="none" 
	d="
M569.662598,779.261963 
	C563.560059,781.387451 559.930054,780.545471 556.920288,776.525574 
	C553.950012,772.558411 553.822937,765.986633 556.638611,761.963074 
	C559.653564,757.654907 563.405579,756.845642 571.016296,758.916992 
	C572.031494,756.724304 571.415039,754.369751 571.639893,752.108643 
	C571.759094,750.910095 571.843323,749.592102 573.303955,749.428467 
	C575.040466,749.233948 575.650208,750.666382 575.715881,751.996948 
	C575.912292,755.976440 575.926697,759.965759 575.973022,763.951660 
	C576.011719,767.277161 576.036133,770.603760 575.994141,773.929016 
	C575.919434,779.855530 575.483521,780.210205 569.662598,779.261963 
M567.364990,762.289490 
	C563.306274,760.609680 560.891235,762.786987 559.498352,766.123535 
	C558.114624,769.438171 558.625732,772.745544 561.643005,775.124329 
	C563.998718,776.981628 566.643921,777.214172 568.888489,775.015381 
	C571.802368,772.160706 572.593567,768.742371 570.408691,765.065430 
	C569.839417,764.107361 568.813110,763.420898 567.364990,762.289490 
z"/>
<path fill="#000000" opacity="1.000000" stroke="none" 
	d="
M370.977203,751.773682 
	C371.282288,752.588806 371.455688,753.079407 371.449554,753.567688 
	C371.327118,763.305908 369.413849,762.875061 381.312103,762.902771 
	C384.831848,762.911011 385.958313,761.476868 385.947693,758.123047 
	C385.939972,755.679626 384.869080,751.404297 388.106262,751.447510 
	C392.101624,751.500732 390.173676,755.883728 390.284271,758.334045 
	C390.554291,764.317139 390.365906,770.322205 390.307465,776.317810 
	C390.293060,777.791504 390.359192,779.666870 388.344910,779.771912 
	C386.366364,779.875000 386.228210,778.044312 385.973541,776.563599 
	C385.945435,776.400208 385.951141,776.231323 385.932709,776.065857 
	C384.883789,766.632690 384.889709,766.742249 375.376404,767.266479 
	C372.299225,767.435974 371.202972,768.706726 371.412262,771.592102 
	C371.508423,772.918152 371.507446,774.259460 371.434845,775.587524 
	C371.340698,777.308899 371.980255,779.896301 369.286835,779.754944 
	C367.011292,779.635437 367.046478,777.190857 367.034576,775.364502 
	C366.991089,768.702637 366.904968,762.037537 367.074280,755.379761 
	C367.126923,753.308289 366.805511,750.174988 370.977203,751.773682 
z"/>
<path fill="#000000" opacity="1.000000" stroke="none" 
	d="
M621.930542,767.119934 
	C621.936340,769.584900 622.133911,771.603455 621.896362,773.569458 
	C621.534851,776.562500 623.098877,781.691895 616.677002,778.944824 
	C616.346741,778.803589 615.749390,779.210144 615.305603,779.422546 
	C610.408508,781.766846 606.235535,780.783264 602.911499,776.559204 
	C599.861755,772.683777 599.704895,765.954529 602.585510,762.015686 
	C605.755249,757.681641 609.968506,756.677673 614.933167,758.563416 
	C615.243835,758.681458 615.593445,758.986450 615.848877,758.918518 
	C623.896851,756.777771 621.370728,762.924988 621.930542,767.119934 
M605.434875,765.953979 
	C604.952881,767.699280 604.505554,769.385803 605.071533,771.269165 
	C606.560791,776.225525 611.486694,778.100525 614.987366,774.935303 
	C618.296509,771.943115 618.395325,766.423523 615.192688,763.459473 
	C612.024292,760.526855 609.367371,761.044739 605.434875,765.953979 
z"/>
<path fill="#000000" opacity="1.000000" stroke="none" 
	d="
M467.371460,776.477722 
	C469.671936,776.686523 471.235779,775.724060 472.830353,774.821289 
	C474.030518,774.141907 475.390350,773.484985 476.222595,775.169006 
	C476.949188,776.639282 475.922791,777.660828 474.806976,778.501831 
	C472.091919,780.548279 468.980316,780.836609 465.786072,780.319153 
	C460.948364,779.535522 457.376221,775.402405 456.902832,770.260620 
	C456.429352,765.118164 459.538635,759.820496 463.966705,758.224854 
	C468.334167,756.651062 473.308746,758.263672 475.828705,762.108704 
	C477.147736,764.121399 478.091034,766.378967 477.027496,768.673401 
	C475.975189,770.943604 473.571075,770.178162 471.669434,770.239258 
	C468.541870,770.339783 465.408691,770.266418 461.967926,770.266418 
	C461.914703,774.252136 464.237976,775.521484 467.371460,776.477722 
M472.417145,765.390808 
	C468.906586,760.421570 465.389069,760.528625 461.742371,766.352905 
	C465.479523,765.906006 468.784058,767.169678 472.417145,765.390808 
z"/>
<path fill="#000000" opacity="1.000000" stroke="none" 
	d="
M648.987549,780.201233 
	C641.022034,776.358765 638.665283,769.154968 642.860779,762.442017 
	C645.114685,758.835693 648.424500,757.306152 652.618469,757.758850 
	C656.664795,758.195740 659.310974,760.551392 660.781311,764.213562 
	C662.425415,768.308533 661.203491,770.026489 656.749512,770.268127 
	C653.171936,770.462219 649.523499,769.760864 645.932068,770.748352 
	C647.574524,776.266479 650.806763,777.731873 655.696472,775.471436 
	C657.096741,774.824158 658.799255,772.886169 659.965271,775.004211 
	C661.283936,777.399231 658.878601,778.474854 657.160339,779.419861 
	C654.708496,780.768372 652.032043,780.631592 648.987549,780.201233 
M650.156616,761.941589 
	C648.194580,762.529724 646.568115,763.478821 645.941223,766.059143 
	C649.526978,766.189148 652.940735,767.062256 656.858948,765.728821 
	C655.415222,762.907837 653.433655,761.875977 650.156616,761.941589 
z"/>
<path fill="#000000" opacity="1.000000" stroke="none" 
	d="
M522.266968,762.240845 
	C518.881470,763.074280 518.184998,765.312317 518.185974,768.035950 
	C518.187012,771.033813 518.205811,774.034790 518.072876,777.028076 
	C518.012024,778.397522 517.495667,779.793762 515.790894,779.765076 
	C514.376770,779.741333 513.820312,778.560974 513.813171,777.328918 
	C513.764404,768.834656 513.758606,760.339905 513.788818,751.845520 
	C513.793274,750.604797 514.322876,749.481140 515.766724,749.418274 
	C517.197327,749.355957 517.873840,750.437561 518.005005,751.645752 
	C518.253479,753.935242 518.298584,756.246826 518.417603,758.362549 
	C519.843323,759.524353 520.826050,758.460693 521.876099,758.196167 
	C527.254272,756.841187 531.272705,759.221924 531.972412,764.771667 
	C532.468750,768.708923 532.189575,772.749451 532.166626,776.743408 
	C532.158752,778.111938 531.788208,779.584106 530.095398,779.646118 
	C528.369690,779.709290 527.937317,778.217529 527.877502,776.872681 
	C527.736816,773.712585 527.736633,770.544922 527.736267,767.380310 
	C527.735901,763.961914 526.341492,761.967163 522.266968,762.240845 
z"/>
<path fill="#000000" opacity="1.000000" stroke="none" 
	d="
M406.780334,757.716919 
	C413.742004,759.391296 417.297852,763.600098 417.118103,769.470520 
	C416.958710,774.675476 413.251648,779.351257 408.523743,780.310730 
	C401.771149,781.681030 395.811951,777.469177 394.855438,770.650085 
	C393.853119,763.504028 398.601593,758.159485 406.780334,757.716919 
M411.591003,772.974609 
	C413.487183,769.222534 412.802551,765.872559 409.739746,763.137573 
	C407.510345,761.146912 404.932739,761.139038 402.432587,762.775757 
	C399.368866,764.781311 398.813507,767.824097 399.479126,771.079895 
	C400.638672,776.751892 406.225006,777.908264 411.591003,772.974609 
z"/>
<path fill="#000000" opacity="1.000000" stroke="none" 
	d="
M502.255371,761.555908 
	C495.642120,764.393188 493.749451,769.666748 497.509521,774.056519 
	C499.876801,776.820251 502.771362,777.189819 506.022614,775.571838 
	C507.353607,774.909485 509.004852,774.187988 509.812073,776.167175 
	C510.445251,777.719666 509.073151,778.517090 507.946259,779.238586 
	C503.942535,781.802002 497.498840,780.824524 494.276245,777.172729 
	C490.512543,772.907532 490.489105,765.317505 494.226715,761.121216 
	C497.348389,757.616455 504.209747,756.459900 507.952728,758.815125 
	C509.102386,759.538513 510.348450,760.377625 509.748108,761.934021 
	C509.103607,763.604858 507.707184,763.177795 506.387177,762.704285 
	C505.148376,762.260010 503.875580,761.910400 502.255371,761.555908 
z"/>
<path fill="#000000" opacity="1.000000" stroke="none" 
	d="
M591.048218,776.581909 
	C591.754150,776.512817 592.077454,776.415222 592.405579,776.395203 
	C594.263428,776.281677 596.737732,773.035095 597.775452,776.337219 
	C598.642029,779.094543 595.406616,779.824280 593.158386,780.316528 
	C588.054565,781.434082 583.536072,779.502808 581.180237,775.342590 
	C578.719299,770.996704 579.176941,764.848022 582.227356,761.274780 
	C585.163330,757.835571 590.716125,756.490967 595.025330,758.257874 
	C596.556458,758.885681 598.420959,759.643799 597.884766,761.715271 
	C597.326721,763.870972 595.679443,762.936218 594.234192,762.495483 
	C589.157043,760.947510 585.470459,762.567566 584.330078,766.751465 
	C582.987183,771.678101 584.995789,774.795837 591.048218,776.581909 
z"/>
<path fill="#000000" opacity="1.000000" stroke="none" 
	d="
M551.076050,764.995422 
	C551.030884,769.302307 551.060730,773.116455 550.897217,776.922424 
	C550.841064,778.229858 550.369446,779.752563 548.672180,779.716309 
	C546.910400,779.678711 546.732300,778.137451 546.725952,776.799072 
	C546.687683,768.677551 546.688416,760.555786 546.707703,752.434143 
	C546.710938,751.081055 546.872498,749.512878 548.590576,749.449890 
	C550.527832,749.378845 550.994812,751.020569 551.028687,752.567810 
	C551.115662,756.543457 551.068726,760.522095 551.076050,764.995422 
z"/>
<path fill="#000000" opacity="1.000000" stroke="none" 
	d="
M629.185059,758.560059 
	C630.971985,759.607666 632.217102,759.775513 633.954712,758.693298 
	C636.066040,757.378296 638.600037,756.664368 640.021118,759.740540 
	C639.641968,761.231445 638.700317,761.425659 637.643616,761.442505 
	C633.179626,761.513550 631.566895,764.329468 631.306091,768.241272 
	C631.107056,771.227966 631.214111,774.234253 631.062439,777.225586 
	C631.001404,778.428894 630.443237,779.543335 629.036560,779.680298 
	C627.842651,779.796509 627.031311,778.910583 626.977966,777.927002 
	C626.645691,771.797485 626.203613,765.651855 627.283813,759.552612 
	C627.358276,759.132263 628.311829,758.867615 629.185059,758.560059 
z"/>
<path fill="#000000" opacity="1.000000" stroke="none" 
	d="
M541.274536,776.557007 
	C541.079468,778.355896 540.877441,779.803406 539.074707,779.701233 
	C537.696655,779.622986 537.073303,778.441162 537.057190,777.259399 
	C536.982849,771.805176 536.973938,766.348083 537.081055,760.894775 
	C537.107178,759.565674 537.715942,758.106323 539.400513,758.213074 
	C541.158691,758.324585 541.232239,759.900208 541.246460,761.215637 
	C541.300171,766.179565 541.282410,771.144287 541.274536,776.557007 
z"/>
<path fill="#000000" opacity="1.000000" stroke="none" 
	d="
M560.561890,351.050049 
	C558.662903,351.254486 557.167358,351.348175 555.675415,351.482452 
	C552.455444,351.772125 550.693176,353.159058 551.678162,356.711304 
	C551.942261,357.663971 552.022400,358.680511 552.084045,359.674133 
	C552.306274,363.255219 551.039734,366.178253 547.297241,366.744812 
	C543.338257,367.344208 541.556885,364.491089 541.088318,361.076660 
	C540.478760,356.635651 540.091980,352.142639 539.975464,347.662506 
	C539.887573,344.284821 541.557190,341.955688 545.258728,341.622284 
	C549.397949,341.249451 553.544312,340.925262 557.667847,340.419373 
	C560.979797,340.013000 563.877869,340.616364 564.989319,344.031250 
	C566.126587,347.525330 564.151855,349.713379 560.561890,351.050049 
z"/>
<path fill="#000000" opacity="1.000000" stroke="none" 
	d="
M619.342407,414.201538 
	C624.008179,414.331268 625.054382,412.100922 624.733521,408.211945 
	C624.414062,404.340240 623.496399,399.698608 629.316711,398.863831 
	C633.075562,398.324707 634.886658,401.230225 635.384460,407.837769 
	C635.646179,411.311768 636.118347,414.775635 636.237793,418.252930 
	C636.352539,421.593048 634.360352,423.618408 631.215027,424.071320 
	C626.947815,424.685822 622.625427,424.924530 618.323975,425.292358 
	C614.586609,425.611908 611.356873,424.574585 611.016296,420.401276 
	C610.673889,416.205597 613.649597,414.685913 617.451294,414.505219 
	C617.946228,414.481720 618.435974,414.350616 619.342407,414.201538 
z"/>
<path fill="#000000" opacity="1.000000" stroke="none" 
	d="
M453.170349,403.853210 
	C456.636871,403.882538 459.641571,403.777649 462.625885,403.977570 
	C466.119080,404.211639 469.034790,405.768890 468.984711,409.626831 
	C468.935303,413.434021 466.166077,415.006409 462.548737,415.123627 
	C461.550598,415.155975 460.544617,415.245453 459.554199,415.163849 
	C455.766357,414.851715 454.202942,416.370056 454.232452,420.340332 
	C454.284027,427.280670 452.576111,429.864716 448.651642,429.451416 
	C442.803284,428.835510 443.691162,424.222504 443.593353,420.302063 
	C443.535278,417.972900 443.568909,415.641235 443.578217,413.310730 
	C443.610626,405.192810 444.678864,404.088379 453.170349,403.853210 
z"/>
<path fill="#000000" opacity="1.000000" stroke="none" 
	d="
M533.194824,473.521454 
	C533.271667,478.294098 533.284363,482.621918 533.306091,486.949707 
	C533.329956,491.701324 530.837585,493.990723 526.220093,494.066589 
	C522.226257,494.132202 518.227295,494.170563 514.236206,494.044403 
	C510.679932,493.932007 507.881195,492.391876 507.908295,488.472046 
	C507.933167,484.871094 510.565613,483.368164 513.885315,482.972992 
	C514.379822,482.914154 514.883484,482.883667 515.380676,482.901886 
	C523.721558,483.207214 522.852112,481.507141 522.643677,475.289093 
	C522.538513,472.150665 523.446106,469.538605 526.830139,468.850769 
	C530.160461,468.173859 532.202576,469.919373 533.194824,473.521454 
z"/>
<path fill="#000000" opacity="1.000000" stroke="none" 
	d="
M459.821808,345.703369 
	C459.730896,344.073944 459.524597,342.877289 459.720459,341.750519 
	C460.202667,338.976074 457.971893,334.957489 461.407257,333.651062 
	C465.385651,332.138214 469.984741,332.239838 474.003296,334.425690 
	C476.536682,335.803711 477.635376,338.238556 477.546234,341.136993 
	C477.455231,344.096191 476.083527,346.571655 473.301605,347.289825 
	C468.807556,348.449982 464.055420,350.023834 459.821808,345.703369 
z"/>
<path fill="#000000" opacity="1.000000" stroke="none" 
	d="
M471.369934,322.796356 
	C468.978821,324.398315 466.637787,324.344330 464.315704,324.242950 
	C462.562103,324.166351 460.196106,324.610809 459.933685,322.117188 
	C459.631042,319.241364 458.701447,316.076508 460.704102,313.492188 
	C461.942657,311.893951 469.885986,312.490906 471.572876,314.199463 
	C474.211792,316.872253 474.200775,319.734436 471.369934,322.796356 
z"/>
</svg>