<svg version="1.1" id="Layer_1" xmlns="http://www.w3.org/2000/svg" xmlns:xlink="http://www.w3.org/1999/xlink" x="0px" y="0px"
	 width="100%" viewBox="0 0 500 500" enable-background="new 0 0 500 500" xml:space="preserve">
<path fill="#FFFFFF" opacity="1.000000" stroke="none" 
	d="
M275.000000,501.000000 
	C183.333359,501.000000 92.166710,501.000000 1.000033,501.000000 
	C1.000000,417.666718 1.000000,334.333405 1.000000,251.000122 
	C1.000000,167.666809 1.000000,84.333496 1.000000,1.000138 
	C167.666565,1.000092 334.333130,1.000092 500.999756,1.000046 
	C500.999847,167.666519 500.999847,334.333038 500.999939,500.999786 
	C425.833344,501.000000 350.666656,501.000000 275.000000,501.000000 
M195.785538,209.403488 
	C195.220108,208.523117 194.654663,207.642731 193.983109,206.080124 
	C190.634125,200.271286 187.285141,194.462463 183.045258,187.108368 
	C179.383209,194.422287 176.443741,200.293060 173.273865,206.593552 
	C173.273865,206.593552 173.006866,207.001541 172.322372,207.107666 
	C168.649292,213.164291 164.976227,219.220932 160.553848,226.513123 
	C167.895844,226.513123 173.808411,226.513123 179.855927,226.962860 
	C180.000519,227.246964 180.082550,227.548126 179.322662,227.970093 
	C167.877899,230.724625 160.625961,240.619385 162.261505,251.248886 
	C163.875076,261.735657 173.643784,270.302765 183.248474,269.654266 
	C195.845047,268.803802 203.380447,260.851196 204.187119,247.848846 
	C204.669785,240.068924 196.198334,228.023178 185.946381,227.220581 
	C185.936615,227.007477 185.926849,226.794373 186.860626,226.614487 
	C192.858749,226.614487 198.856857,226.614487 206.184448,226.614487 
	C202.149780,220.101440 199.029617,215.064651 195.785538,209.403488 
M118.644531,244.393906 
	C118.649101,244.604553 118.653664,244.815216 118.306625,245.894684 
	C118.306625,253.504211 118.306625,261.113739 118.306625,269.156433 
	C132.763474,269.156433 146.754166,269.156433 160.803284,269.156433 
	C160.803284,254.980499 160.803284,241.240952 160.803284,227.270676 
	C146.488358,227.270676 132.451813,227.270676 117.481735,227.270676 
	C118.066788,233.081543 118.618614,238.562363 118.644531,244.393906 
M301.171509,247.274429 
	C302.068695,245.271057 303.139008,243.324600 303.820587,241.250381 
	C304.739227,238.454834 305.358429,235.560913 306.106140,232.709198 
	C306.901978,235.593491 306.654968,238.280441 306.974457,240.898239 
	C307.268494,243.307159 307.493530,246.864670 308.983215,247.690933 
	C310.736786,248.663528 313.819214,247.240173 316.340820,246.853394 
	C319.642273,247.382553 323.323792,248.791550 326.763580,248.343781 
	C332.857483,247.550507 331.466003,241.289490 333.534760,237.230835 
	C334.400848,238.919327 334.410126,240.817734 335.254883,242.208771 
	C336.288666,243.911072 337.889801,246.178329 339.488007,246.392532 
	C341.381653,246.646301 344.077179,245.483429 345.453491,244.020462 
	C347.854767,241.467941 349.512817,238.216202 351.615479,235.057495 
	C350.537506,235.404144 349.444336,235.755661 348.404205,236.090134 
	C346.178497,232.782211 346.577972,226.484680 341.082611,227.378876 
	C337.938660,227.890457 335.356567,231.855026 332.674927,234.134552 
	C329.916107,226.547226 327.773834,225.474762 321.655182,229.809875 
	C321.655182,226.643784 321.642426,223.877182 321.658600,221.110764 
	C321.676880,217.983017 321.421692,215.095871 316.927521,215.159393 
	C314.387177,224.308365 318.669281,234.209274 313.156281,242.679855 
	C312.695404,239.045059 313.058777,235.394760 312.523407,231.881424 
	C312.297089,230.396133 310.375397,228.567215 308.852325,228.095566 
	C307.856232,227.787109 306.125641,229.551376 304.858795,230.557007 
	C304.315155,230.988556 304.113617,231.851044 303.756653,232.517746 
	C303.003113,227.975067 302.948608,223.581314 303.020203,219.189621 
	C303.078308,215.627426 301.283234,214.572174 297.074402,215.131210 
	C297.074402,222.279587 297.074402,229.355179 297.074402,236.430756 
	C296.635529,236.424789 296.196655,236.418839 295.757782,236.412872 
	C295.571228,234.995041 295.258698,233.580200 295.224854,232.158707 
	C295.158325,229.364380 294.145050,228.207764 291.049988,227.958786 
	C283.280365,227.333755 282.264557,227.726608 279.162659,235.043884 
	C277.900238,238.021896 276.576263,240.973816 275.280273,243.937622 
	C274.115753,240.575500 273.882935,237.724228 274.171875,234.926849 
	C274.576172,231.012665 273.552094,229.114868 269.147278,230.379898 
	C268.401459,235.646362 268.153534,241.107056 262.110626,244.792160 
	C261.200500,242.016998 260.439148,239.695496 259.562347,237.022003 
	C261.152252,236.807388 262.229645,236.989670 262.668518,236.543655 
	C264.227112,234.959747 267.058228,232.611176 266.671021,231.562851 
	C265.938019,229.578217 263.518066,227.407974 261.423248,226.916550 
	C257.913849,226.093277 256.333313,229.011398 255.149094,232.026367 
	C253.689270,235.743057 251.907150,239.333176 250.264297,242.977997 
	C249.819489,242.835190 249.374695,242.692398 248.929886,242.549591 
	C248.929886,234.978592 249.147186,227.397232 248.786789,219.843414 
	C248.688934,217.792389 246.912064,214.208328 245.792404,214.163544 
	C243.631348,214.077133 240.554260,215.449936 239.361420,217.227417 
	C237.130005,220.552505 235.971832,224.597855 234.007523,229.183060 
	C234.007523,225.110535 234.287766,221.834061 233.873566,218.647888 
	C233.700912,217.319733 232.049698,216.183792 231.070770,214.960434 
	C230.158096,216.187668 228.482590,217.398666 228.456085,218.644745 
	C228.279083,226.969666 228.341003,235.305908 228.624115,243.628311 
	C228.671921,245.034149 230.164993,246.390808 230.990326,247.770203 
	C232.219818,246.539307 234.131424,245.508789 234.561935,244.043198 
	C236.529434,237.344910 238.011795,230.505798 239.832169,223.761459 
	C240.284317,222.086243 241.347305,220.575867 242.129517,218.989716 
	C243.039139,226.402725 242.748047,233.405594 243.190292,240.361847 
	C243.354492,242.944778 244.587036,246.708908 246.477966,247.662369 
	C249.976425,249.426376 252.071411,246.220810 253.435150,243.124741 
	C253.700562,242.522186 254.078934,241.969406 254.412903,241.380051 
	C258.863342,247.796921 261.411438,248.314392 267.802338,244.124573 
	C271.150452,250.268967 273.870667,250.247467 277.920441,244.867569 
	C281.781403,245.757614 285.223907,246.551193 288.608826,247.331512 
	C287.229492,249.909576 285.024994,252.938522 284.027405,256.323212 
	C283.471283,258.210114 284.922791,260.688782 285.469574,262.900757 
	C287.927826,262.063354 291.374268,261.933746 292.604279,260.216553 
	C294.294281,257.857147 294.507538,254.326462 294.980927,251.240479 
	C295.475311,248.017532 295.527771,244.726776 295.735443,241.970016 
	C297.424622,243.916626 298.942749,245.666153 301.171509,247.274429 
M161.940735,281.524567 
	C161.940735,291.929626 161.940735,302.334656 161.940735,312.702301 
	C176.607437,312.702301 190.498840,312.702301 204.453857,312.702301 
	C204.453857,298.639130 204.453857,284.942780 204.453857,271.267456 
	C190.127487,271.267456 176.232361,271.267456 161.940659,271.267456 
	C161.940659,274.599304 161.940659,277.567749 161.940735,281.524567 
M75.914833,286.503082 
	C75.914833,295.253571 75.914833,304.004059 75.914833,312.792145 
	C90.401779,312.792145 104.146393,312.792145 118.118225,312.792145 
	C118.118225,298.768127 118.118225,285.022797 118.118225,271.222748 
	C103.971146,271.222748 90.100311,271.222748 75.914780,271.222748 
	C75.914780,276.229584 75.914780,280.866974 75.914833,286.503082 
M433.511383,222.542908 
	C433.517700,221.377197 433.938568,219.974548 433.437897,219.098587 
	C432.580627,217.598694 431.146790,216.428329 429.955048,215.119629 
	C429.295105,216.428070 428.264374,217.679840 428.053894,219.056976 
	C427.641724,221.753662 427.687012,224.520248 427.520416,227.685547 
	C419.379730,225.826385 418.478455,232.264343 415.989532,237.219971 
	C413.584076,233.099457 414.208862,227.580887 408.511017,227.074997 
	C402.039307,226.500412 403.238403,233.084579 400.332214,236.510666 
	C399.414185,234.446350 399.044159,232.472717 397.879059,231.267990 
	C396.225555,229.558228 393.975403,227.335678 392.001526,227.356522 
	C390.298492,227.374512 387.942230,229.923431 387.089355,231.882278 
	C385.580139,235.348557 384.993317,239.216446 384.020477,242.916260 
	C383.576660,242.823074 383.132812,242.729889 382.688995,242.636703 
	C382.688995,239.037979 383.052704,235.383636 382.515106,231.867096 
	C382.291168,230.402023 380.331177,228.581329 378.812592,228.151413 
	C377.783600,227.860077 376.085419,229.631485 374.813629,230.640579 
	C374.273651,231.069016 374.059174,231.907639 373.002472,233.809296 
	C373.002472,227.928848 372.987640,223.504852 373.007141,219.080994 
	C373.022644,215.561813 371.222809,214.511292 368.048157,215.049805 
	C366.262634,225.524933 370.218903,237.037430 360.722015,246.433060 
	C360.722015,244.130875 360.682526,242.715942 360.732788,241.304199 
	C360.786072,239.807434 361.159149,238.281876 360.961792,236.827347 
	C360.753601,235.293106 360.377136,232.808594 359.482635,232.509766 
	C355.691864,231.243347 355.638306,228.695999 355.907745,225.503082 
	C355.992310,224.500824 355.023621,223.157272 354.152130,222.433167 
	C353.716034,222.070847 352.161072,222.466370 351.549164,223.010544 
	C349.360474,224.956909 349.586273,230.579773 352.227295,231.769012 
	C355.664490,233.316803 355.627808,235.630020 355.193207,238.596344 
	C354.881256,240.725418 354.551056,242.998718 354.988800,245.045181 
	C355.352448,246.745499 356.564789,249.187668 357.869049,249.532700 
	C359.548737,249.977020 361.907074,249.003143 363.572021,247.984543 
	C364.854156,247.200119 365.517456,245.404144 366.078094,244.599869 
	C367.803009,245.569412 369.390228,247.122025 370.921173,247.068420 
	C371.805420,247.037460 372.881012,244.503998 373.375305,242.940323 
	C374.447052,239.550171 375.200623,236.059464 376.084290,232.609863 
	C376.690308,236.575851 376.434296,240.383957 376.819244,244.126144 
	C376.968384,245.575851 378.308655,247.588165 379.577820,248.050797 
	C380.930389,248.543854 383.004303,247.811417 384.451172,247.033478 
	C385.452118,246.495331 385.923737,244.972626 386.755524,243.700775 
	C394.939850,251.725327 397.343811,243.114944 401.313141,237.623291 
	C402.553009,242.449753 403.002991,247.797348 408.295349,246.420776 
	C411.493225,245.588974 413.917328,241.782074 416.540192,239.444656 
	C418.753418,247.584869 421.681427,248.873764 426.406433,244.847321 
	C429.538483,245.407516 432.383636,246.860733 433.802460,245.989944 
	C437.773804,243.552536 437.733490,239.049606 437.278809,234.650528 
	C436.194580,237.039474 435.110382,239.428406 433.484833,243.010101 
	C433.484833,235.516495 433.484833,229.470596 433.511383,222.542908 
M340.743134,278.600677 
	C335.813751,276.867126 334.466614,280.047455 334.083832,283.820557 
	C333.860321,286.024109 333.757996,289.603394 334.935638,290.296570 
	C337.252808,291.660431 340.500275,291.443756 344.966187,292.125763 
	C343.611420,287.126312 342.512146,283.069794 340.743134,278.600677 
M284.926453,277.305878 
	C284.761200,275.877106 284.595947,274.448334 284.430695,273.019562 
	C283.788849,273.037689 283.147034,273.055847 282.505188,273.074005 
	C282.505188,279.119080 282.505188,285.164124 282.505188,291.209167 
	C282.927155,291.364227 283.349121,291.519287 283.771118,291.674347 
	C284.225220,290.036957 284.664001,288.395081 285.137482,286.763336 
	C285.664581,284.946808 286.223297,283.139465 286.768219,281.328125 
	C287.233978,281.432281 287.699738,281.536438 288.165497,281.640594 
	C288.165497,284.264923 288.011383,286.903656 288.255188,289.505157 
	C288.332855,290.333801 289.467834,291.063354 290.119019,291.838257 
	C290.603455,291.104431 291.387970,290.422394 291.524963,289.628601 
	C292.635986,283.190247 290.851654,280.093994 284.926453,277.305878 
M269.189117,283.449402 
	C269.768311,285.658508 269.846100,288.231934 271.096741,289.953156 
	C271.983368,291.173370 274.514954,291.819061 276.199707,291.643097 
	C277.557037,291.501373 278.745819,289.745605 280.009369,288.705963 
	C279.663818,288.304626 279.318298,287.903320 278.972748,287.501984 
	C277.632416,288.239624 276.292084,288.977295 274.967468,289.706299 
	C271.612427,285.436066 271.583313,279.822144 274.757690,275.547882 
	C276.083038,276.761322 277.420349,277.985718 278.757660,279.210083 
	C279.269501,278.657410 279.781372,278.104706 280.293213,277.552002 
	C278.426605,275.926666 276.554779,273.048309 274.695038,273.056091 
	C273.087769,273.062805 271.262634,276.204071 269.984344,278.242279 
	C269.255402,279.404572 269.428558,281.132629 269.189117,283.449402 
M320.037354,282.516174 
	C319.873535,279.378326 319.709717,276.240448 319.545898,273.102600 
	C318.929047,273.119385 318.312195,273.136139 317.695343,273.152924 
	C317.336060,274.955078 316.976807,276.757263 316.619110,278.551544 
	C311.111237,279.915314 309.178802,282.557098 310.288513,287.518402 
	C311.558258,293.195312 315.923126,291.605469 320.038086,291.776642 
	C320.038086,288.728973 320.038086,286.107239 320.037354,282.516174 
M356.343994,284.723236 
	C356.804230,287.600067 356.264618,291.085663 360.960052,291.993958 
	C360.549408,289.597504 360.209106,287.611694 359.827423,285.384216 
	C362.461060,285.130768 364.645233,284.920563 366.829437,284.710358 
	C367.129242,284.155701 367.429047,283.601044 367.728851,283.046387 
	C365.660248,281.435547 363.776093,278.881622 361.480286,278.432648 
	C357.947113,277.741730 357.107117,281.125916 356.343994,284.723236 
M332.046021,286.977173 
	C330.448364,287.719116 328.850708,288.461060 326.835876,289.396729 
	C324.368713,286.603943 323.943298,283.467957 327.087433,280.048126 
	C328.591858,281.270020 329.808868,282.258453 331.025879,283.246887 
	C331.485626,282.703064 331.945374,282.159210 332.405121,281.615387 
	C330.873596,280.489685 329.442413,278.620178 327.789062,278.397095 
	C324.598206,277.966553 322.388397,279.888367 322.164642,283.246460 
	C321.946014,286.528046 321.523071,290.392365 325.586609,291.597748 
	C328.656433,292.508423 331.544800,291.465668 332.046021,286.977173 
M238.669128,281.997742 
	C236.243454,281.659393 233.822968,281.156158 231.389069,281.079590 
	C230.623627,281.055542 229.822174,282.176941 229.037186,282.774017 
	C229.816895,283.367004 230.609894,284.491150 231.374298,284.472046 
	C240.430237,284.245697 249.482361,283.858887 258.534271,283.485138 
	C259.844391,283.431061 261.148254,283.224487 262.455017,283.088470 
	C262.426025,282.724884 262.397034,282.361328 262.368042,281.997742 
	C254.789627,281.997742 247.211212,281.997742 238.669128,281.997742 
M385.576721,284.496399 
	C392.802704,284.875763 400.027466,285.283966 407.256592,285.588989 
	C407.963196,285.618805 408.846680,285.164307 409.364197,284.649323 
	C409.701569,284.313629 409.768768,283.056824 409.533905,282.915436 
	C408.777466,282.460052 407.810425,282.072449 406.950317,282.120483 
	C403.356171,282.321106 399.775543,282.877472 396.182281,282.956909 
	C389.667694,283.100952 383.147614,282.997742 376.629852,282.997742 
	C376.613464,283.496887 376.597107,283.996063 376.580750,284.495209 
	C379.256317,284.495209 381.931885,284.495209 385.576721,284.496399 
M354.182678,279.331482 
	C351.677429,279.010986 349.172150,278.690521 346.209076,278.311493 
	C346.209076,282.189026 346.067139,285.486511 346.292664,288.758606 
	C346.363403,289.785248 347.422424,290.743744 348.029083,291.733429 
	C348.634735,290.733948 349.768311,289.726410 349.753143,288.736450 
	C349.692780,284.793304 350.137115,281.316193 354.182678,279.331482 
M303.187988,288.937714 
	C303.582214,289.869568 303.976471,290.801392 304.370697,291.733246 
	C304.778381,291.607208 305.186096,291.481140 305.593781,291.355072 
	C305.593781,285.291290 305.593781,279.227478 305.593781,273.163666 
	C304.964661,273.124084 304.335571,273.084503 303.706451,273.044922 
	C302.628113,277.945404 303.490967,283.068939 303.187988,288.937714 
M297.747223,279.400665 
	C296.695343,279.579987 294.746155,279.693970 294.727600,279.948547 
	C294.489441,283.219086 294.424255,286.514648 294.579742,289.791290 
	C294.611511,290.460938 295.733490,291.078796 296.352936,291.720551 
	C296.869293,291.011536 297.793213,290.323639 297.831177,289.589874 
	C297.992554,286.472839 297.891205,283.342163 297.747223,279.400665 
z"/>
<path fill="#FF6161" opacity="1.000000" stroke="none" 
	d="
M300.816193,247.345062 
	C298.942749,245.666153 297.424622,243.916626 295.735443,241.970016 
	C295.527771,244.726776 295.475311,248.017532 294.980927,251.240479 
	C294.507538,254.326462 294.294281,257.857147 292.604279,260.216553 
	C291.374268,261.933746 287.927826,262.063354 285.469574,262.900757 
	C284.922791,260.688782 283.471283,258.210114 284.027405,256.323212 
	C285.024994,252.938522 287.229492,249.909576 288.608826,247.331512 
	C285.223907,246.551193 281.781403,245.757614 277.920441,244.867569 
	C273.870667,250.247467 271.150452,250.268967 267.802338,244.124573 
	C261.411438,248.314392 258.863342,247.796921 254.412903,241.380051 
	C254.078934,241.969406 253.700562,242.522186 253.435150,243.124741 
	C252.071411,246.220810 249.976425,249.426376 246.477966,247.662369 
	C244.587036,246.708908 243.354492,242.944778 243.190292,240.361847 
	C242.748047,233.405594 243.039139,226.402725 242.129517,218.989716 
	C241.347305,220.575867 240.284317,222.086243 239.832169,223.761459 
	C238.011795,230.505798 236.529434,237.344910 234.561935,244.043198 
	C234.131424,245.508789 232.219818,246.539307 230.990326,247.770203 
	C230.164993,246.390808 228.671921,245.034149 228.624115,243.628311 
	C228.341003,235.305908 228.279083,226.969666 228.456085,218.644745 
	C228.482590,217.398666 230.158096,216.187668 231.070770,214.960449 
	C232.049698,216.183792 233.700912,217.319733 233.873566,218.647888 
	C234.287766,221.834061 234.007523,225.110535 234.007523,229.183060 
	C235.971832,224.597855 237.130005,220.552505 239.361420,217.227417 
	C240.554260,215.449936 243.631348,214.077133 245.792404,214.163544 
	C246.912064,214.208328 248.688934,217.792389 248.786789,219.843414 
	C249.147186,227.397232 248.929886,234.978592 248.929886,242.549591 
	C249.374695,242.692398 249.819489,242.835190 250.264297,242.977997 
	C251.907150,239.333176 253.689270,235.743057 255.149094,232.026367 
	C256.333313,229.011398 257.913849,226.093277 261.423248,226.916550 
	C263.518066,227.407974 265.938019,229.578217 266.671021,231.562851 
	C267.058228,232.611176 264.227112,234.959747 262.668518,236.543655 
	C262.229645,236.989670 261.152252,236.807388 259.562347,237.022003 
	C260.439148,239.695496 261.200500,242.016998 262.110626,244.792160 
	C268.153534,241.107056 268.401459,235.646362 269.147278,230.379898 
	C273.552094,229.114868 274.576172,231.012665 274.171875,234.926849 
	C273.882935,237.724228 274.115753,240.575500 275.280273,243.937622 
	C276.576263,240.973816 277.900238,238.021896 279.162659,235.043884 
	C282.264557,227.726608 283.280365,227.333755 291.049988,227.958786 
	C294.145050,228.207764 295.158325,229.364380 295.224854,232.158707 
	C295.258698,233.580200 295.571228,234.995041 295.757782,236.412872 
	C296.196655,236.418839 296.635529,236.424789 297.074402,236.430756 
	C297.074402,229.355179 297.074402,222.279587 297.074402,215.131210 
	C301.283234,214.572174 303.078308,215.627426 303.020203,219.189621 
	C302.948608,223.581314 303.003113,227.975067 303.756653,232.517746 
	C304.113617,231.851044 304.315155,230.988556 304.858795,230.557007 
	C306.125641,229.551376 307.856232,227.787109 308.852325,228.095566 
	C310.375397,228.567215 312.297089,230.396133 312.523407,231.881424 
	C313.058777,235.394760 312.695404,239.045059 313.156281,242.679855 
	C318.669281,234.209274 314.387177,224.308365 316.927521,215.159393 
	C321.421692,215.095871 321.676880,217.983017 321.658600,221.110764 
	C321.642426,223.877182 321.655182,226.643784 321.655182,229.809875 
	C327.773834,225.474762 329.916107,226.547226 332.674927,234.134552 
	C335.356567,231.855026 337.938660,227.890457 341.082611,227.378876 
	C346.577972,226.484680 346.178497,232.782211 348.404205,236.090134 
	C349.444336,235.755661 350.537506,235.404144 351.615479,235.057495 
	C349.512817,238.216202 347.854767,241.467941 345.453491,244.020462 
	C344.077179,245.483429 341.381653,246.646301 339.488007,246.392532 
	C337.889801,246.178329 336.288666,243.911072 335.254883,242.208771 
	C334.410126,240.817734 334.400848,238.919327 333.534760,237.230835 
	C331.466003,241.289490 332.857483,247.550507 326.763580,248.343781 
	C323.323792,248.791550 319.642273,247.382553 316.340820,246.853394 
	C313.819214,247.240173 310.736786,248.663528 308.983215,247.690933 
	C307.493530,246.864670 307.268494,243.307159 306.974457,240.898239 
	C306.654968,238.280441 306.901978,235.593491 306.106140,232.709198 
	C305.358429,235.560913 304.739227,238.454834 303.820587,241.250381 
	C303.139008,243.324600 302.068695,245.271057 300.816193,247.345062 
M284.112488,239.552399 
	C284.239288,240.854843 284.366089,242.157272 284.492889,243.459717 
	C287.712646,239.430847 290.200958,235.479721 289.705109,230.710800 
	C289.069885,230.489105 288.434662,230.267395 287.799438,230.045700 
	C286.594849,232.952972 285.390228,235.860260 284.112488,239.552399 
M322.906128,236.462906 
	C322.589935,238.086975 322.273743,239.711044 321.812805,242.078659 
	C327.823395,237.212570 327.964172,236.771942 325.536438,230.501480 
	C324.557556,232.585556 323.822693,234.150070 322.906128,236.462906 
z"/>
<path fill="#46C95F" opacity="1.000000" stroke="none" 
	d="
M119.170441,244.043198 
	C118.618614,238.562363 118.066788,233.081543 117.481735,227.270676 
	C132.451813,227.270676 146.488358,227.270676 160.803284,227.270676 
	C160.803284,241.240952 160.803284,254.980499 160.803284,269.156433 
	C146.754166,269.156433 132.763474,269.156433 118.306625,269.156433 
	C118.306625,261.113739 118.306625,253.504211 118.635750,245.436356 
	C119.115242,244.917068 119.400208,244.834335 119.394424,244.798630 
	C119.352837,244.541473 119.252289,244.293839 119.170441,244.043198 
M142.960464,238.227432 
	C142.743073,237.299942 142.525696,236.372452 142.308304,235.444946 
	C141.812515,235.741989 141.316711,236.039017 140.820908,236.336044 
	C141.485184,237.196213 142.149445,238.056396 142.960464,238.227432 
M121.375900,246.197113 
	C121.776077,246.202087 122.176247,246.207077 122.576431,246.212051 
	C122.576973,246.045959 122.589157,245.735672 122.576370,245.734650 
	C122.177200,245.702408 121.775597,245.700348 121.375900,246.197113 
M135.004105,249.711090 
	C134.768478,249.785782 134.532867,249.860474 134.297241,249.935165 
	C134.562881,250.197617 134.828522,250.460068 135.094162,250.722519 
	C135.166992,250.486633 135.239807,250.250763 135.004105,249.711090 
M129.599411,250.412643 
	C129.951508,250.391022 130.303589,250.369385 130.655685,250.347763 
	C130.583252,250.095627 130.510803,249.843491 130.438370,249.591354 
	C130.194733,249.724457 129.951080,249.857544 129.599411,250.412643 
M125.408867,247.482529 
	C125.408867,247.482529 125.523193,247.413574 125.408867,247.482529 
M141.517654,244.406662 
	C141.517654,244.406662 141.588104,244.522873 141.517654,244.406662 
z"/>
<path fill="#58A4F3" opacity="1.000000" stroke="none" 
	d="
M161.940704,281.030396 
	C161.940659,277.567749 161.940659,274.599304 161.940659,271.267456 
	C176.232361,271.267456 190.127487,271.267456 204.453857,271.267456 
	C204.453857,284.942780 204.453857,298.639130 204.453857,312.702301 
	C190.498840,312.702301 176.607437,312.702301 161.940735,312.702301 
	C161.940735,302.334656 161.940735,291.929626 161.940704,281.030396 
z"/>
<path fill="#FF5757" opacity="1.000000" stroke="none" 
	d="
M75.914810,286.003723 
	C75.914780,280.866974 75.914780,276.229584 75.914780,271.222748 
	C90.100311,271.222748 103.971146,271.222748 118.118225,271.222748 
	C118.118225,285.022797 118.118225,298.768127 118.118225,312.792145 
	C104.146393,312.792145 90.401779,312.792145 75.914833,312.792145 
	C75.914833,304.004059 75.914833,295.253571 75.914810,286.003723 
M108.800186,297.932281 
	C108.684448,296.778625 108.568718,295.625000 108.452980,294.471344 
	C107.902359,294.600708 107.351738,294.730042 106.801117,294.859406 
	C107.311256,296.060760 107.821396,297.262115 108.800186,297.932281 
M101.895462,289.160858 
	C101.803688,289.040253 101.734215,288.865936 101.613228,288.815674 
	C101.512932,288.774017 101.259026,288.846741 101.232796,288.923401 
	C101.056480,289.438538 100.922821,289.968262 100.775345,290.493256 
	C101.159752,290.217102 101.544159,289.940918 101.895462,289.160858 
M106.204727,289.610413 
	C106.209198,289.213104 106.213669,288.815826 106.218132,288.418518 
	C106.053268,288.417236 105.745163,288.404816 105.744270,288.416321 
	C105.713432,288.811493 105.711678,289.208954 106.204727,289.610413 
M100.701813,296.570343 
	C100.990013,296.295227 101.278206,296.020081 101.566399,295.744965 
	C101.452194,295.625916 101.245155,295.396912 101.237175,295.403625 
	C100.933426,295.660187 100.647949,295.938416 100.701813,296.570343 
z"/>
<path fill="#FF6161" opacity="1.000000" stroke="none" 
	d="
M433.498108,222.983795 
	C433.484833,229.470596 433.484833,235.516495 433.484833,243.010101 
	C435.110382,239.428406 436.194580,237.039474 437.278809,234.650528 
	C437.733490,239.049606 437.773804,243.552536 433.802460,245.989944 
	C432.383636,246.860733 429.538483,245.407516 426.406433,244.847321 
	C421.681427,248.873764 418.753418,247.584869 416.540192,239.444656 
	C413.917328,241.782074 411.493225,245.588974 408.295349,246.420776 
	C403.002991,247.797348 402.553009,242.449753 401.313141,237.623291 
	C397.343811,243.114944 394.939850,251.725327 386.755524,243.700775 
	C385.923737,244.972626 385.452118,246.495331 384.451172,247.033478 
	C383.004303,247.811417 380.930389,248.543854 379.577820,248.050797 
	C378.308655,247.588165 376.968384,245.575851 376.819244,244.126144 
	C376.434296,240.383957 376.690308,236.575851 376.084290,232.609863 
	C375.200623,236.059464 374.447052,239.550171 373.375305,242.940323 
	C372.881012,244.503998 371.805420,247.037460 370.921173,247.068420 
	C369.390228,247.122025 367.803009,245.569412 366.078094,244.599869 
	C365.517456,245.404144 364.854156,247.200119 363.572021,247.984543 
	C361.907074,249.003143 359.548737,249.977020 357.869049,249.532700 
	C356.564789,249.187668 355.352448,246.745499 354.988800,245.045181 
	C354.551056,242.998718 354.881256,240.725418 355.193207,238.596344 
	C355.627808,235.630020 355.664490,233.316803 352.227295,231.769012 
	C349.586273,230.579773 349.360474,224.956909 351.549164,223.010544 
	C352.161072,222.466370 353.716034,222.070847 354.152130,222.433167 
	C355.023621,223.157272 355.992310,224.500824 355.907745,225.503082 
	C355.638306,228.695999 355.691864,231.243347 359.482635,232.509766 
	C360.377136,232.808594 360.753601,235.293106 360.961792,236.827347 
	C361.159149,238.281876 360.786072,239.807434 360.732788,241.304199 
	C360.682526,242.715942 360.722015,244.130875 360.722015,246.433060 
	C370.218903,237.037430 366.262634,225.524933 368.048157,215.049805 
	C371.222809,214.511292 373.022644,215.561813 373.007141,219.080994 
	C372.987640,223.504852 373.002472,227.928848 373.002472,233.809296 
	C374.059174,231.907639 374.273651,231.069016 374.813629,230.640579 
	C376.085419,229.631485 377.783600,227.860077 378.812592,228.151413 
	C380.331177,228.581329 382.291168,230.402023 382.515106,231.867096 
	C383.052704,235.383636 382.688995,239.037979 382.688995,242.636703 
	C383.132812,242.729889 383.576660,242.823074 384.020477,242.916260 
	C384.993317,239.216446 385.580139,235.348557 387.089355,231.882278 
	C387.942230,229.923431 390.298492,227.374512 392.001526,227.356522 
	C393.975403,227.335678 396.225555,229.558228 397.879059,231.267990 
	C399.044159,232.472717 399.414185,234.446350 400.332214,236.510666 
	C403.238403,233.084579 402.039307,226.500412 408.511017,227.074997 
	C414.208862,227.580887 413.584076,233.099457 415.989532,237.219971 
	C418.478455,232.264343 419.379730,225.826385 427.520416,227.685547 
	C427.687012,224.520248 427.641724,221.753662 428.053894,219.056976 
	C428.264374,217.679840 429.295105,216.428070 429.955048,215.119629 
	C431.146790,216.428329 432.580627,217.598694 433.437897,219.098587 
	C433.938568,219.974548 433.517700,221.377197 433.498108,222.983795 
M422.358826,238.426025 
	C422.600433,239.750610 422.842041,241.075195 423.083649,242.399780 
	C423.448761,242.417221 423.813904,242.434662 424.179016,242.452118 
	C425.284821,238.545502 426.390625,234.638885 427.496429,230.732269 
	C426.764557,230.479034 426.032715,230.225800 425.300873,229.972565 
	C424.349976,232.541885 423.399048,235.111221 422.358826,238.426025 
z"/>
<path fill="#FCD140" opacity="1.000000" stroke="none" 
	d="
M185.899429,227.858246 
	C196.198334,228.023178 204.669785,240.068924 204.187119,247.848846 
	C203.380447,260.851196 195.845047,268.803802 183.248474,269.654266 
	C173.643784,270.302765 163.875076,261.735657 162.261505,251.248886 
	C160.625961,240.619385 167.877899,230.724625 180.121033,227.969254 
	C182.579407,227.931702 184.239426,227.894974 185.899429,227.858246 
z"/>
<path fill="#FF5959" opacity="1.000000" stroke="none" 
	d="
M179.720963,226.513123 
	C173.808411,226.513123 167.895844,226.513123 160.553848,226.513123 
	C164.976227,219.220932 168.649292,213.164291 172.814346,207.007202 
	C173.616623,206.729767 173.682602,206.482132 173.504272,206.163834 
	C176.443741,200.293060 179.383209,194.422287 183.045258,187.108368 
	C187.285141,194.462463 190.634125,200.271286 194.013214,206.789551 
	C194.665359,208.341949 195.287415,209.184921 195.909454,210.027878 
	C199.029617,215.064651 202.149780,220.101440 206.184448,226.614487 
	C198.856857,226.614487 192.858749,226.614487 186.066879,226.396820 
	C183.422409,226.290466 181.571686,226.401794 179.720963,226.513123 
M180.453003,209.289001 
	C181.033112,209.401260 181.613220,209.513519 182.193329,209.625793 
	C182.198318,209.213943 182.203308,208.802078 182.208313,208.390228 
	C181.625519,208.488434 181.042725,208.586624 180.453003,209.289001 
z"/>
<path fill="#70B1F5" opacity="1.000000" stroke="none" 
	d="
M341.078003,278.806976 
	C342.512146,283.069794 343.611420,287.126312 344.966187,292.125763 
	C340.500275,291.443756 337.252808,291.660431 334.935638,290.296570 
	C333.757996,289.603394 333.860321,286.024109 334.083832,283.820557 
	C334.466614,280.047455 335.813751,276.867126 341.078003,278.806976 
z"/>
<path fill="#60A8F4" opacity="1.000000" stroke="none" 
	d="
M284.996948,277.719788 
	C290.851654,280.093994 292.635986,283.190247 291.524963,289.628601 
	C291.387970,290.422394 290.603455,291.104431 290.119019,291.838257 
	C289.467834,291.063354 288.332855,290.333801 288.255188,289.505157 
	C288.011383,286.903656 288.165497,284.264923 288.165497,281.640594 
	C287.699738,281.536438 287.233978,281.432281 286.768219,281.328125 
	C286.223297,283.139465 285.664581,284.946808 285.137482,286.763336 
	C284.664001,288.395081 284.225220,290.036957 283.771118,291.674347 
	C283.349121,291.519287 282.927155,291.364227 282.505188,291.209167 
	C282.505188,285.164124 282.505188,279.119080 282.505188,273.074005 
	C283.147034,273.055847 283.788849,273.037689 284.430695,273.019562 
	C284.595947,274.448334 284.761200,275.877106 284.996948,277.719788 
z"/>
<path fill="#6CAFF5" opacity="1.000000" stroke="none" 
	d="
M269.192322,283.027679 
	C269.428558,281.132629 269.255402,279.404572 269.984344,278.242279 
	C271.262634,276.204071 273.087769,273.062805 274.695038,273.056091 
	C276.554779,273.048309 278.426605,275.926666 280.293213,277.552002 
	C279.781372,278.104706 279.269501,278.657410 278.757660,279.210083 
	C277.420349,277.985718 276.083038,276.761322 274.757690,275.547882 
	C271.583313,279.822144 271.612427,285.436066 274.967468,289.706299 
	C276.292084,288.977295 277.632416,288.239624 278.972748,287.501984 
	C279.318298,287.903320 279.663818,288.304626 280.009369,288.705963 
	C278.745819,289.745605 277.557037,291.501373 276.199707,291.643097 
	C274.514954,291.819061 271.983368,291.173370 271.096741,289.953156 
	C269.846100,288.231934 269.768311,285.658508 269.192322,283.027679 
z"/>
<path fill="#66ACF4" opacity="1.000000" stroke="none" 
	d="
M320.037720,283.000824 
	C320.038086,286.107239 320.038086,288.728973 320.038086,291.776642 
	C315.923126,291.605469 311.558258,293.195312 310.288513,287.518402 
	C309.178802,282.557098 311.111237,279.915314 316.619110,278.551544 
	C316.976807,276.757263 317.336060,274.955078 317.695343,273.152924 
	C318.312195,273.136139 318.929047,273.119385 319.545898,273.102600 
	C319.709717,276.240448 319.873535,279.378326 320.037720,283.000824 
M317.038544,286.362701 
	C316.525024,284.563080 316.011475,282.763489 315.497955,280.963867 
	C314.938599,281.088806 314.379242,281.213715 313.819885,281.338654 
	C313.819885,284.164764 313.819885,286.990875 313.819885,289.816986 
	C314.270935,289.933838 314.721954,290.050690 315.173004,290.167542 
	C315.770264,289.165558 316.367523,288.163544 317.038544,286.362701 
z"/>
<path fill="#66ACF4" opacity="1.000000" stroke="none" 
	d="
M356.396790,284.337921 
	C357.107117,281.125916 357.947113,277.741730 361.480286,278.432648 
	C363.776093,278.881622 365.660248,281.435547 367.728851,283.046387 
	C367.429047,283.601044 367.129242,284.155701 366.829437,284.710358 
	C364.645233,284.920563 362.461060,285.130768 359.827423,285.384216 
	C360.209106,287.611694 360.549408,289.597504 360.960052,291.993958 
	C356.264618,291.085663 356.804230,287.600067 356.396790,284.337921 
z"/>
<path fill="#6CAFF5" opacity="1.000000" stroke="none" 
	d="
M332.148499,287.291840 
	C331.544800,291.465668 328.656433,292.508423 325.586609,291.597748 
	C321.523071,290.392365 321.946014,286.528046 322.164642,283.246460 
	C322.388397,279.888367 324.598206,277.966553 327.789062,278.397095 
	C329.442413,278.620178 330.873596,280.489685 332.405121,281.615387 
	C331.945374,282.159210 331.485626,282.703064 331.025879,283.246887 
	C329.808868,282.258453 328.591858,281.270020 327.087433,280.048126 
	C323.943298,283.467957 324.368713,286.603943 326.835876,289.396729 
	C328.850708,288.461060 330.448364,287.719116 332.148499,287.291840 
z"/>
<path fill="#70B1F5" opacity="1.000000" stroke="none" 
	d="
M239.150955,281.997742 
	C247.211212,281.997742 254.789627,281.997742 262.368042,281.997742 
	C262.397034,282.361328 262.426025,282.724884 262.455017,283.088470 
	C261.148254,283.224487 259.844391,283.431061 258.534271,283.485138 
	C249.482361,283.858887 240.430237,284.245697 231.374298,284.472046 
	C230.609894,284.491150 229.816895,283.367004 229.037201,282.774048 
	C229.822174,282.176941 230.623627,281.055542 231.389069,281.079590 
	C233.822968,281.156158 236.243454,281.659393 239.150955,281.997742 
z"/>
<path fill="#70B1F5" opacity="1.000000" stroke="none" 
	d="
M385.092102,284.495789 
	C381.931885,284.495209 379.256317,284.495209 376.580750,284.495209 
	C376.597107,283.996063 376.613464,283.496887 376.629852,282.997742 
	C383.147614,282.997742 389.667694,283.100952 396.182281,282.956909 
	C399.775543,282.877472 403.356171,282.321106 406.950317,282.120483 
	C407.810425,282.072449 408.777466,282.460052 409.533905,282.915436 
	C409.768768,283.056824 409.701569,284.313629 409.364197,284.649323 
	C408.846680,285.164307 407.963196,285.618805 407.256592,285.588989 
	C400.027466,285.283966 392.802704,284.875763 385.092102,284.495789 
z"/>
<path fill="#70B1F5" opacity="1.000000" stroke="none" 
	d="
M354.374512,279.612610 
	C350.137115,281.316193 349.692780,284.793304 349.753143,288.736450 
	C349.768311,289.726410 348.634735,290.733948 348.029083,291.733429 
	C347.422424,290.743744 346.363403,289.785248 346.292664,288.758606 
	C346.067139,285.486511 346.209076,282.189026 346.209076,278.311493 
	C349.172150,278.690521 351.677429,279.010986 354.374512,279.612610 
z"/>
<path fill="#70B1F5" opacity="1.000000" stroke="none" 
	d="
M303.185608,288.497864 
	C303.490967,283.068939 302.628113,277.945404 303.706451,273.044922 
	C304.335571,273.084503 304.964661,273.124084 305.593781,273.163666 
	C305.593781,279.227478 305.593781,285.291290 305.593781,291.355072 
	C305.186096,291.481140 304.778381,291.607208 304.370697,291.733246 
	C303.976471,290.801392 303.582214,289.869568 303.185608,288.497864 
z"/>
<path fill="#6CAFF5" opacity="1.000000" stroke="none" 
	d="
M297.816528,279.808594 
	C297.891205,283.342163 297.992554,286.472839 297.831177,289.589874 
	C297.793213,290.323639 296.869293,291.011536 296.352936,291.720551 
	C295.733490,291.078796 294.611511,290.460938 294.579742,289.791290 
	C294.424255,286.514648 294.489441,283.219086 294.727600,279.948547 
	C294.746155,279.693970 296.695343,279.579987 297.816528,279.808594 
z"/>
<path fill="#FFB3AE" opacity="1.000000" stroke="none" 
	d="
M179.788452,226.737976 
	C181.571686,226.401794 183.422409,226.290466 185.595093,226.380203 
	C185.926849,226.794373 185.936615,227.007477 185.922913,227.539413 
	C184.239426,227.894974 182.579407,227.931702 180.510712,227.917374 
	C180.082550,227.548126 180.000519,227.246964 179.788452,226.737976 
z"/>
<path fill="#FF5B5B" opacity="1.000000" stroke="none" 
	d="
M195.847504,209.715683 
	C195.287415,209.184921 194.665359,208.341949 194.066269,207.130676 
	C194.654663,207.642731 195.220108,208.523117 195.847504,209.715683 
z"/>
<path fill="#4BCA63" opacity="1.000000" stroke="none" 
	d="
M118.907486,244.218552 
	C119.252289,244.293839 119.352837,244.541473 119.394424,244.798630 
	C119.400208,244.834335 119.115242,244.917068 118.811554,245.001953 
	C118.653664,244.815216 118.649101,244.604553 118.907486,244.218552 
z"/>
<path fill="#FF5B5B" opacity="1.000000" stroke="none" 
	d="
M173.389069,206.378693 
	C173.682602,206.482132 173.616623,206.729767 173.156586,206.954132 
	C173.006866,207.001541 173.273865,206.593552 173.389069,206.378693 
z"/>
<path fill="#FFECEC" opacity="1.000000" stroke="none" 
	d="
M284.149048,239.159973 
	C285.390228,235.860260 286.594849,232.952972 287.799438,230.045700 
	C288.434662,230.267395 289.069885,230.489105 289.705109,230.710800 
	C290.200958,235.479721 287.712646,239.430847 284.492889,243.459717 
	C284.366089,242.157272 284.239288,240.854843 284.149048,239.159973 
z"/>
<path fill="#FFECEC" opacity="1.000000" stroke="none" 
	d="
M322.997009,236.088745 
	C323.822693,234.150070 324.557556,232.585556 325.536438,230.501480 
	C327.964172,236.771942 327.823395,237.212570 321.812805,242.078659 
	C322.273743,239.711044 322.589935,238.086975 322.997009,236.088745 
z"/>
<path fill="#4BCA63" opacity="1.000000" stroke="none" 
	d="
M142.887085,238.571991 
	C142.149445,238.056396 141.485184,237.196213 140.820908,236.336044 
	C141.316711,236.039017 141.812515,235.741989 142.308304,235.444946 
	C142.525696,236.372452 142.743073,237.299942 142.887085,238.571991 
z"/>
<path fill="#4BCA63" opacity="1.000000" stroke="none" 
	d="
M121.375137,245.945374 
	C121.775597,245.700348 122.177200,245.702408 122.576370,245.734650 
	C122.589157,245.735672 122.576973,246.045959 122.576431,246.212051 
	C122.176247,246.207077 121.776077,246.202087 121.375137,245.945374 
z"/>
<path fill="#4BCA63" opacity="1.000000" stroke="none" 
	d="
M135.158371,249.862976 
	C135.239807,250.250763 135.166992,250.486633 135.094162,250.722519 
	C134.828522,250.460068 134.562881,250.197617 134.297241,249.935165 
	C134.532867,249.860474 134.768478,249.785782 135.158371,249.862976 
z"/>
<path fill="#4BCA63" opacity="1.000000" stroke="none" 
	d="
M129.653412,250.201630 
	C129.951080,249.857544 130.194733,249.724457 130.438370,249.591354 
	C130.510803,249.843491 130.583252,250.095627 130.655685,250.347763 
	C130.303589,250.369385 129.951508,250.391022 129.653412,250.201630 
z"/>
<path fill="#4BCA63" opacity="1.000000" stroke="none" 
	d="
M125.466034,247.448059 
	C125.523193,247.413574 125.408867,247.482529 125.466034,247.448059 
z"/>
<path fill="#4BCA63" opacity="1.000000" stroke="none" 
	d="
M141.552887,244.464767 
	C141.588104,244.522873 141.517654,244.406662 141.552887,244.464767 
z"/>
<path fill="#FF6161" opacity="1.000000" stroke="none" 
	d="
M108.565857,298.197876 
	C107.821396,297.262115 107.311256,296.060760 106.801117,294.859406 
	C107.351738,294.730042 107.902359,294.600708 108.452980,294.471344 
	C108.568718,295.625000 108.684448,296.778625 108.565857,298.197876 
z"/>
<path fill="#FF6161" opacity="1.000000" stroke="none" 
	d="
M101.912018,289.412781 
	C101.544159,289.940918 101.159752,290.217102 100.775345,290.493256 
	C100.922821,289.968262 101.056480,289.438538 101.232796,288.923401 
	C101.259026,288.846741 101.512932,288.774017 101.613228,288.815674 
	C101.734215,288.865936 101.803688,289.040253 101.912018,289.412781 
z"/>
<path fill="#FF6161" opacity="1.000000" stroke="none" 
	d="
M105.955231,289.608246 
	C105.711678,289.208954 105.713432,288.811493 105.744270,288.416321 
	C105.745163,288.404816 106.053268,288.417236 106.218140,288.418518 
	C106.213669,288.815826 106.209198,289.213104 105.955231,289.608246 
z"/>
<path fill="#FF6161" opacity="1.000000" stroke="none" 
	d="
M100.530914,296.392029 
	C100.647949,295.938416 100.933426,295.660187 101.237175,295.403625 
	C101.245155,295.396912 101.452194,295.625916 101.566399,295.744965 
	C101.278206,296.020081 100.990013,296.295227 100.530914,296.392029 
z"/>
<path fill="#FFECEC" opacity="1.000000" stroke="none" 
	d="
M422.403503,238.053284 
	C423.399048,235.111221 424.349976,232.541885 425.300873,229.972565 
	C426.032715,230.225800 426.764557,230.479034 427.496429,230.732269 
	C426.390625,234.638885 425.284821,238.545502 424.179016,242.452118 
	C423.813904,242.434662 423.448761,242.417221 423.083649,242.399780 
	C422.842041,241.075195 422.600433,239.750610 422.403503,238.053284 
z"/>
<path fill="#FF5B5B" opacity="1.000000" stroke="none" 
	d="
M180.456467,208.986908 
	C181.042725,208.586624 181.625519,208.488434 182.208313,208.390228 
	C182.203308,208.802078 182.198318,209.213943 182.193329,209.625793 
	C181.613220,209.513519 181.033112,209.401260 180.456467,208.986908 
z"/>
<path fill="#FFFFFF" opacity="1.000000" stroke="none" 
	d="
M317.001648,286.762146 
	C316.367523,288.163544 315.770264,289.165558 315.173004,290.167542 
	C314.721954,290.050690 314.270935,289.933838 313.819885,289.816986 
	C313.819885,286.990875 313.819885,284.164764 313.819885,281.338654 
	C314.379242,281.213715 314.938599,281.088806 315.497955,280.963867 
	C316.011475,282.763489 316.525024,284.563080 317.001648,286.762146 
z"/>
</svg>