<svg xmlns="http://www.w3.org/2000/svg" version="1.1" xmlns:xlink="http://www.w3.org/1999/xlink" xmlns:svgjs="http://svgjs.dev/svgjs" width="128" height="128" viewBox="0 0 128 128"><g transform="matrix(0.8046875,0,0,0.8046875,12.333870967741937,22.00145198377681)"><svg viewBox="0 0 155 127" data-background-color="#aaaaaa" preserveAspectRatio="xMidYMid meet" height="104" width="128" xmlns="http://www.w3.org/2000/svg" xmlns:xlink="http://www.w3.org/1999/xlink"><g id="tight-bounds" transform="matrix(1,0,0,1,0.25,0.23491379310345195)"><svg viewBox="0 0 154.5 126.5301724137931" height="126.5301724137931" width="154.5"><g><svg viewBox="0 0 154.5 126.5301724137931" height="126.5301724137931" width="154.5"><g><svg viewBox="0 0 154.5 126.5301724137931" height="126.5301724137931" width="154.5"><g><svg viewBox="0 0 154.5 126.5301724137931" height="126.5301724137931" width="154.5"><g><svg viewBox="0 0 154.5 126.5301724137931" height="126.5301724137931" width="154.5"><g transform="matrix(1,0,0,1,0,0)"><svg width="154.5" viewBox="2 -37.5 58 47.5" height="126.5301724137931" data-palette-color="#ffffff"><path d="M2-17.4L2-17.4Q2-25.55 6.23-30.38 10.45-35.2 16.75-35.2L16.75-35.2Q31.5-35.2 31.5-17.4L31.5-17.4Q31.5-9.75 27.73-5.05 23.95-0.35 18.1 0.15L18.1 0.15Q19.5 5.1 26 9.7L26 9.7 23.05 10Q20.55 8.3 18.15 5.65 15.75 3 14.9 0.1L14.9 0.1Q2-0.9 2-17.4ZM5.4-17.5L5.4-17.5Q5.4-2.8 16.75-2.8L16.75-2.8Q21.65-2.8 24.88-6.7 28.1-10.6 28.1-17.5L28.1-17.5Q28.1-32.2 16.75-32.2L16.75-32.2Q11.85-32.2 8.63-28.28 5.4-24.35 5.4-17.5ZM39.65-1.85L39.65-1.85Q37.9-3 36.82-5.48 35.75-7.95 35.75-11.5L35.75-11.5Q35.75-18.05 39.1-21.5L39.1-21.5Q42.65-25.2 47.2-25.2L47.2-25.2Q50-25.2 52.9-23.75L52.9-23.75 52.9-35 49.55-35 49.55-37.5 56.15-37.5 56.15-2.5 60-2.5 60 0 53.4 0 53-1.6Q50.15 0.2 46.45 0.2 42.75 0.2 39.65-1.85ZM52.9-4.05L52.9-4.05 52.9-21.6Q50.6-22.3 48.55-22.3L48.55-22.3Q44.25-22.3 41.62-19.48 39-16.65 39-11.55L39-11.55Q39-8.85 39.77-6.98 40.55-5.1 41.85-4.2L41.85-4.2Q44.1-2.7 47.1-2.7 50.1-2.7 52.9-4.05Z" opacity="1" transform="matrix(1,0,0,1,0,0)" fill="#ffffff" class="undefined-text-0" data-fill-palette-color="primary" id="text-0"></path></svg></g></svg></g></svg></g></svg></g></svg></g><defs></defs></svg><rect width="154.5" height="126.5301724137931" fill="none" stroke="none" visibility="hidden"></rect></g></svg></g></svg>